# xmcd
#
# Track frame offsets: 
#        182
#        16920
#        36595
#        54737
#        69717
#        88670
#        106460
#        119185
#        136405
#        155645
#        171122
#        188712
#        209740
#        231317
#        248467
#        267397
#        293737
#        314375
#        331535
#
# Disc length: 4666 seconds
#
# Revision: 20
# Processed by: cddbd v1.5.2PL0 Copyright (c) Steve Scherf et al.
# Submitted via: ExactAudioCopy v1.3
#
DISCID=21123813
DTITLE=Various Artist - Thunderdome IV - The Devils Last Wish - CD1
DYEAR=1993
DGENRE=Hardcore, Gabber
TTITLE0=Hardsequencer - Noise Is The Message (Remix)
TTITLE1=Ilsa Gold II - Silke (Speedfreak Remix)
TTITLE2=Tutti Frutti - Tutti Frutti (Rotterdam Mix)
TTITLE3=Charly Lownoise and Mental Theo - Tiroler Kaboemsch
TTITLE4=Car and Driver - Passiv
TTITLE5=RMB - The Place To Be
TTITLE6=Sorcerer - Summer
TTITLE7=NIP Collective - Weekend Track (Original Mix)
TTITLE8=Nasty Django - SGE (1st Mob Mix)
TTITLE9=Casseopaya - 10 Seconds To Terminate (Live)
TTITLE10=E-De-Cologne - Zimboculture
TTITLE11=Speedfreak - Red Poison (Part 1)
TTITLE12=Yves De Ruyter - Rave City
TTITLE13=DJ Bountyhunter - Demilitarized Zone
TTITLE14=E-De-Cologne - Ein Bisschen Frieden
TTITLE15=Lenny Dee and DJ Edge - Alpha One
TTITLE16=Speedfreak - Red Poison (Part 3)
TTITLE17=Omar Santana - Edit Madness
TTITLE18=English Muffin - The Blood Of An English Muffin (M. Steenberg
TTITLE18=en Remix)
EXTD=YEAR: 1994
EXTT0=
EXTT1=
EXTT2=
EXTT3=
EXTT4=
EXTT5=
EXTT6=
EXTT7=
EXTT8=
EXTT9=
EXTT10=
EXTT11=
EXTT12=
EXTT13=
EXTT14=
EXTT15=
EXTT16=
EXTT17=
EXTT18=
PLAYORDER=
